<svg width="22" height="38" viewBox="0 0 22 38" fill="none" xmlns="http://www.w3.org/2000/svg">
<path d="M20.7052 36.2164C21.0074 35.9167 21.2476 35.5603 21.4118 35.1676C21.5761 34.7749 21.6614 34.3537 21.6626 33.9281C21.6639 33.5024 21.5813 33.0807 21.4194 32.6871C21.2575 32.2934 21.0196 31.9355 20.7192 31.6339L8.14762 18.9856L20.7959 6.41407C21.4055 5.80824 21.7493 4.9851 21.752 4.12572C21.7546 3.26634 21.4157 2.44111 20.8099 1.83158C20.204 1.22206 19.3809 0.878169 18.5215 0.875554C17.6621 0.872939 16.8369 1.21181 16.2274 1.81764L1.26457 16.6897C0.962369 16.9894 0.722254 17.3458 0.557969 17.7385C0.393683 18.1312 0.308456 18.5524 0.307161 18.978C0.305865 19.4037 0.388527 19.8254 0.55042 20.219C0.712312 20.6127 0.950254 20.9706 1.25062 21.2722L16.1227 36.235C17.3539 37.4737 19.4339 37.4801 20.7052 36.2164Z" fill="white"/>
</svg>
